<mxfile host="app.diagrams.net" agent="Mozilla/5.0 (Windows NT 10.0; Win64; x64) AppleWebKit/537.36 (KHTML, like Gecko) Chrome/140.0.0.0 Safari/537.36" version="28.2.7">
  <diagram name="Page-1" id="74e2e168-ea6b-b213-b513-2b3c1d86103e">
    <mxGraphModel dx="1188" dy="619" grid="0" gridSize="10" guides="1" tooltips="1" connect="1" arrows="1" fold="1" page="1" pageScale="1" pageWidth="1100" pageHeight="850" background="none" math="0" shadow="0">
      <root>
        <mxCell id="0" />
        <mxCell id="1" parent="0" />
        <mxCell id="77e6c97f196da883-1" value="&lt;font style=&quot;font-size: 14px;&quot;&gt;家庭共享电视系统&lt;/font&gt;" style="swimlane;html=1;childLayout=stackLayout;startSize=20;rounded=0;shadow=0;labelBackgroundColor=none;strokeWidth=1;fontFamily=Verdana;fontSize=8;align=center;" parent="1" vertex="1">
          <mxGeometry x="70" y="40" width="371" height="345" as="geometry" />
        </mxCell>
        <mxCell id="77e6c97f196da883-2" value="遥控器" style="swimlane;html=1;startSize=20;" parent="77e6c97f196da883-1" vertex="1">
          <mxGeometry y="20" width="173" height="325" as="geometry" />
        </mxCell>
        <mxCell id="8Mx7GZRyE268cOzbS8Tf-2" style="edgeStyle=orthogonalEdgeStyle;rounded=0;orthogonalLoop=1;jettySize=auto;html=1;exitX=0.5;exitY=1;exitDx=0;exitDy=0;" edge="1" parent="77e6c97f196da883-2" source="77e6c97f196da883-8" target="8Mx7GZRyE268cOzbS8Tf-1">
          <mxGeometry relative="1" as="geometry" />
        </mxCell>
        <mxCell id="77e6c97f196da883-8" value="&lt;font style=&quot;font-size: 10px;&quot;&gt;生理信号采集模块&lt;/font&gt;" style="rounded=1;whiteSpace=wrap;html=1;shadow=0;labelBackgroundColor=none;strokeWidth=1;fontFamily=Verdana;fontSize=8;align=center;" parent="77e6c97f196da883-2" vertex="1">
          <mxGeometry x="34" y="35" width="100" height="60" as="geometry" />
        </mxCell>
        <mxCell id="8Mx7GZRyE268cOzbS8Tf-5" style="edgeStyle=orthogonalEdgeStyle;rounded=0;orthogonalLoop=1;jettySize=auto;html=1;exitX=0.5;exitY=1;exitDx=0;exitDy=0;" edge="1" parent="77e6c97f196da883-2" source="8Mx7GZRyE268cOzbS8Tf-1" target="8Mx7GZRyE268cOzbS8Tf-4">
          <mxGeometry relative="1" as="geometry" />
        </mxCell>
        <mxCell id="8Mx7GZRyE268cOzbS8Tf-1" value="&lt;font style=&quot;font-size: 10px;&quot;&gt;信号预处理单元&lt;/font&gt;" style="rounded=1;whiteSpace=wrap;html=1;shadow=0;labelBackgroundColor=none;strokeWidth=1;fontFamily=Verdana;fontSize=8;align=center;" vertex="1" parent="77e6c97f196da883-2">
          <mxGeometry x="34" y="131" width="100" height="60" as="geometry" />
        </mxCell>
        <mxCell id="8Mx7GZRyE268cOzbS8Tf-4" value="&lt;font style=&quot;font-size: 10px;&quot;&gt;无线传输模块&lt;/font&gt;" style="rounded=1;whiteSpace=wrap;html=1;shadow=0;labelBackgroundColor=none;strokeWidth=1;fontFamily=Verdana;fontSize=8;align=center;" vertex="1" parent="77e6c97f196da883-2">
          <mxGeometry x="34" y="227" width="100" height="60" as="geometry" />
        </mxCell>
        <mxCell id="77e6c97f196da883-3" value="电视主机" style="swimlane;html=1;startSize=20;" parent="77e6c97f196da883-1" vertex="1">
          <mxGeometry x="173" y="20" width="198" height="325" as="geometry" />
        </mxCell>
        <mxCell id="8Mx7GZRyE268cOzbS8Tf-22" style="edgeStyle=orthogonalEdgeStyle;rounded=0;orthogonalLoop=1;jettySize=auto;html=1;exitX=0.5;exitY=0;exitDx=0;exitDy=0;entryX=0.5;entryY=1;entryDx=0;entryDy=0;" edge="1" parent="77e6c97f196da883-3" source="8Mx7GZRyE268cOzbS8Tf-6" target="8Mx7GZRyE268cOzbS8Tf-12">
          <mxGeometry relative="1" as="geometry" />
        </mxCell>
        <mxCell id="8Mx7GZRyE268cOzbS8Tf-6" value="&lt;font style=&quot;font-size: 10px;&quot;&gt;多模态融合识别模块&lt;/font&gt;" style="rounded=1;whiteSpace=wrap;html=1;shadow=0;labelBackgroundColor=none;strokeWidth=1;fontFamily=Verdana;fontSize=8;align=center;" vertex="1" parent="77e6c97f196da883-3">
          <mxGeometry x="64" y="227" width="100" height="60" as="geometry" />
        </mxCell>
        <mxCell id="8Mx7GZRyE268cOzbS8Tf-20" style="edgeStyle=orthogonalEdgeStyle;rounded=0;orthogonalLoop=1;jettySize=auto;html=1;exitX=0.5;exitY=0;exitDx=0;exitDy=0;" edge="1" parent="77e6c97f196da883-3" source="8Mx7GZRyE268cOzbS8Tf-12" target="8Mx7GZRyE268cOzbS8Tf-14">
          <mxGeometry relative="1" as="geometry" />
        </mxCell>
        <mxCell id="8Mx7GZRyE268cOzbS8Tf-12" value="&lt;font style=&quot;font-size: 10px;&quot;&gt;应用预测推荐模块&lt;/font&gt;" style="rounded=1;whiteSpace=wrap;html=1;shadow=0;labelBackgroundColor=none;strokeWidth=1;fontFamily=Verdana;fontSize=8;align=center;" vertex="1" parent="77e6c97f196da883-3">
          <mxGeometry x="64" y="132" width="100" height="60" as="geometry" />
        </mxCell>
        <mxCell id="8Mx7GZRyE268cOzbS8Tf-14" value="&lt;font style=&quot;font-size: 10px;&quot;&gt;显示单元&lt;/font&gt;" style="rounded=1;whiteSpace=wrap;html=1;shadow=0;labelBackgroundColor=none;strokeWidth=1;fontFamily=Verdana;fontSize=8;align=center;" vertex="1" parent="77e6c97f196da883-3">
          <mxGeometry x="64" y="37" width="100" height="60" as="geometry" />
        </mxCell>
        <mxCell id="8Mx7GZRyE268cOzbS8Tf-21" style="edgeStyle=orthogonalEdgeStyle;rounded=0;orthogonalLoop=1;jettySize=auto;html=1;exitX=1;exitY=0.5;exitDx=0;exitDy=0;" edge="1" parent="77e6c97f196da883-1" source="8Mx7GZRyE268cOzbS8Tf-4" target="8Mx7GZRyE268cOzbS8Tf-6">
          <mxGeometry relative="1" as="geometry" />
        </mxCell>
      </root>
    </mxGraphModel>
  </diagram>
</mxfile>
